<svg width="19" height="19" viewBox="0 0 19 19" fill="none" xmlns="http://www.w3.org/2000/svg">
<path d="M9.8 18.84C7.90667 18.84 6.26667 18.4467 4.88 17.66C3.50667 16.8867 2.44667 15.8133 1.7 14.44C0.966667 13.0533 0.6 11.4533 0.6 9.64C0.6 7.85333 0.993333 6.30667 1.78 5C2.58 3.68 3.69333 2.66 5.12 1.94C6.56 1.20667 8.24 0.84 10.16 0.84C11.5867 0.84 12.84 1.05333 13.92 1.48C15 1.90667 15.9 2.5 16.62 3.26C17.3533 4.02 17.9 4.89333 18.26 5.88C18.6333 6.86667 18.82 7.92 18.82 9.04C18.82 10.4 18.6133 11.48 18.2 12.28C17.8 13.0667 17.2733 13.6333 16.62 13.98C15.98 14.3267 15.2933 14.5 14.56 14.5C13.8667 14.5 13.2933 14.3533 12.84 14.06C12.4 13.7667 12.0533 13.3 11.8 12.66C11.5467 13.06 11.16 13.4267 10.64 13.76C10.1333 14.0933 9.47333 14.26 8.66 14.26C6.52667 14.26 5.46 12.9 5.46 10.18V9.68C5.46 8.33333 5.74 7.32 6.3 6.64C6.86 5.94667 7.64667 5.6 8.66 5.6C9.23333 5.6 9.67333 5.70667 9.98 5.92C10.2867 6.13333 10.4867 6.33333 10.58 6.52L10.78 5.7H13.62V10.68C13.62 11.28 13.7067 11.7 13.88 11.94C14.0667 12.18 14.3 12.3 14.58 12.3C14.9133 12.3 15.22 12.06 15.5 11.58C15.78 11.1 15.92 10.32 15.92 9.24C15.92 8.12 15.7333 7.10667 15.36 6.2C14.9867 5.29333 14.3733 4.57333 13.52 4.04C12.68 3.50667 11.56 3.24 10.16 3.24C8.8 3.24 7.62 3.50667 6.62 4.04C5.63333 4.56 4.86667 5.3 4.32 6.26C3.77333 7.22 3.5 8.34667 3.5 9.64C3.5 11.0133 3.77333 12.2067 4.32 13.22C4.86667 14.2333 5.64 15.0133 6.64 15.56C7.64 16.12 8.81333 16.4 10.16 16.4C10.8667 16.4 11.4267 16.36 11.84 16.28C12.2667 16.2 12.5933 16.1133 12.82 16.02C13.0467 15.9267 13.2 15.86 13.28 15.82V17.98C12.96 18.26 12.4733 18.4733 11.82 18.62C11.18 18.7667 10.5067 18.84 9.8 18.84ZM9.96 11.5C10.28 11.5 10.4867 11.3533 10.58 11.06C10.6867 10.7533 10.74 10.36 10.74 9.88C10.74 8.84 10.5067 8.32 10.04 8.32C9.76 8.32 9.56 8.44 9.44 8.68C9.33333 8.92 9.28 9.25333 9.28 9.68V9.94C9.28 10.4733 9.34667 10.8667 9.48 11.12C9.61333 11.3733 9.77333 11.5 9.96 11.5Z" fill="#6F8454"/>
</svg>
