<svg width="50" height="46" viewBox="0 0 50 46" fill="none" xmlns="http://www.w3.org/2000/svg">
<path opacity="0.2" fill-rule="evenodd" clip-rule="evenodd" d="M6.25 21.16C6.25 20.55 6.51339 19.965 6.98223 19.5337C7.45107 19.1023 8.08696 18.86 8.75 18.86H34.52C35.183 18.86 35.8189 19.1023 36.2878 19.5337C36.7566 19.965 37.02 20.55 37.02 21.16C37.02 21.77 36.7566 22.355 36.2878 22.7864C35.8189 23.2177 35.183 23.46 34.52 23.46H8.75C8.08696 23.46 7.45107 23.2177 6.98223 22.7864C6.51339 22.355 6.25 21.77 6.25 21.16ZM6.25 11.96C6.25 11.35 6.51339 10.765 6.98223 10.3337C7.45107 9.90232 8.08696 9.66 8.75 9.66H43.75C44.413 9.66 45.0489 9.90232 45.5178 10.3337C45.9866 10.765 46.25 11.35 46.25 11.96C46.25 12.57 45.9866 13.155 45.5178 13.5864C45.0489 14.0177 44.413 14.26 43.75 14.26H8.75C8.08696 14.26 7.45107 14.0177 6.98223 13.5864C6.51339 13.155 6.25 12.57 6.25 11.96ZM6.25 30.36C6.25 29.75 6.51339 29.165 6.98223 28.7337C7.45107 28.3023 8.08696 28.06 8.75 28.06H43.75C44.413 28.06 45.0489 28.3023 45.5178 28.7337C45.9866 29.165 46.25 29.75 46.25 30.36C46.25 30.97 45.9866 31.555 45.5178 31.9864C45.0489 32.4177 44.413 32.66 43.75 32.66H8.75C8.08696 32.66 7.45107 32.4177 6.98223 31.9864C6.51339 31.555 6.25 30.97 6.25 30.36ZM6.25 39.56C6.25 38.95 6.51339 38.365 6.98223 37.9337C7.45107 37.5023 8.08696 37.26 8.75 37.26H34.52C35.183 37.26 35.8189 37.5023 36.2878 37.9337C36.7566 38.365 37.02 38.95 37.02 39.56C37.02 40.17 36.7566 40.755 36.2878 41.1864C35.8189 41.6177 35.183 41.86 34.52 41.86H8.75C8.08696 41.86 7.45107 41.6177 6.98223 41.1864C6.51339 40.755 6.25 40.17 6.25 39.56Z" fill="#8A9F70"/>
<path fill-rule="evenodd" clip-rule="evenodd" d="M5 19.55C5 19.245 5.1317 18.9525 5.36612 18.7368C5.60054 18.5212 5.91848 18.4 6.25 18.4H34.52C34.8515 18.4 35.1695 18.5212 35.4039 18.7368C35.6383 18.9525 35.77 19.245 35.77 19.55C35.77 19.855 35.6383 20.1475 35.4039 20.3632C35.1695 20.5789 34.8515 20.7 34.52 20.7H6.25C5.91848 20.7 5.60054 20.5789 5.36612 20.3632C5.1317 20.1475 5 19.855 5 19.55ZM5 10.35C5 10.045 5.1317 9.75251 5.36612 9.53684C5.60054 9.32117 5.91848 9.20001 6.25 9.20001H43.75C44.0815 9.20001 44.3995 9.32117 44.6339 9.53684C44.8683 9.75251 45 10.045 45 10.35C45 10.655 44.8683 10.9475 44.6339 11.1632C44.3995 11.3789 44.0815 11.5 43.75 11.5H6.25C5.91848 11.5 5.60054 11.3789 5.36612 11.1632C5.1317 10.9475 5 10.655 5 10.35ZM5 28.75C5 28.445 5.1317 28.1525 5.36612 27.9368C5.60054 27.7212 5.91848 27.6 6.25 27.6H43.75C44.0815 27.6 44.3995 27.7212 44.6339 27.9368C44.8683 28.1525 45 28.445 45 28.75C45 29.055 44.8683 29.3475 44.6339 29.5632C44.3995 29.7789 44.0815 29.9 43.75 29.9H6.25C5.91848 29.9 5.60054 29.7789 5.36612 29.5632C5.1317 29.3475 5 29.055 5 28.75ZM5 37.95C5 37.645 5.1317 37.3525 5.36612 37.1368C5.60054 36.9212 5.91848 36.8 6.25 36.8H34.52C34.8515 36.8 35.1695 36.9212 35.4039 37.1368C35.6383 37.3525 35.77 37.645 35.77 37.95C35.77 38.255 35.6383 38.5475 35.4039 38.7632C35.1695 38.9789 34.8515 39.1 34.52 39.1H6.25C5.91848 39.1 5.60054 38.9789 5.36612 38.7632C5.1317 38.5475 5 38.255 5 37.95Z" fill="#8A9F70"/>
</svg>
