<?xml version="1.0" standalone="no"?>
<!DOCTYPE svg PUBLIC "-//W3C//DTD SVG 20010904//EN"
 "http://www.w3.org/TR/2001/REC-SVG-20010904/DTD/svg10.dtd">
<svg version="1.0" xmlns="http://www.w3.org/2000/svg"
 width="4000.000000pt" height="4000.000000pt" viewBox="0 0 4000.000000 4000.000000"
 preserveAspectRatio="xMidYMid meet">

<g transform="translate(0.000000,4000.000000) scale(0.100000,-0.100000)"
fill="#000000" stroke="none">
<path d="M18235 37470 c-467 -10 -681 -28 -970 -80 -215 -38 -285 -47 -525
-65 -241 -18 -344 -35 -476 -75 -120 -37 -260 -65 -429 -85 -166 -20 -183 -25
-340 -80 -93 -33 -177 -54 -295 -74 -119 -20 -186 -37 -240 -61 -139 -60 -165
-68 -294 -95 -129 -26 -160 -37 -246 -87 -55 -32 -124 -53 -243 -73 -106 -19
-152 -36 -230 -86 -42 -28 -87 -44 -168 -64 -128 -30 -143 -36 -222 -87 -57
-36 -92 -50 -209 -82 -32 -9 -88 -37 -125 -63 -65 -44 -99 -58 -248 -102 -46
-13 -90 -36 -130 -66 -33 -24 -63 -45 -67 -45 -32 0 -187 -69 -221 -98 -45
-37 -77 -53 -198 -96 -50 -18 -94 -42 -128 -71 -28 -24 -76 -53 -107 -64 -78
-30 -104 -44 -177 -100 -38 -28 -92 -58 -129 -70 -41 -14 -84 -38 -116 -65
-28 -24 -91 -63 -139 -86 -51 -24 -107 -60 -133 -85 -25 -24 -74 -57 -108 -75
-35 -17 -83 -49 -106 -70 -39 -36 -151 -100 -175 -100 -6 0 -39 -26 -73 -59
-35 -32 -87 -71 -117 -86 -29 -14 -74 -46 -100 -69 -25 -24 -77 -60 -116 -81
-38 -21 -95 -62 -125 -90 -31 -29 -74 -62 -96 -73 -22 -11 -58 -40 -79 -64
-22 -24 -69 -62 -104 -86 -36 -24 -78 -58 -93 -77 -15 -18 -48 -45 -73 -60
-25 -14 -74 -51 -108 -82 -34 -31 -94 -80 -134 -109 -39 -30 -81 -67 -92 -82
-11 -16 -49 -48 -83 -70 -35 -23 -74 -57 -87 -77 -13 -19 -48 -51 -78 -71 -29
-19 -66 -53 -80 -75 -14 -22 -50 -57 -79 -77 -29 -21 -67 -57 -84 -80 -17 -23
-53 -58 -80 -78 -28 -20 -64 -56 -81 -80 -16 -24 -49 -57 -73 -73 -24 -17 -60
-53 -80 -81 -20 -27 -55 -63 -78 -80 -23 -17 -59 -55 -80 -84 -20 -29 -55 -65
-77 -79 -22 -14 -55 -50 -75 -80 -19 -29 -53 -67 -75 -85 -22 -17 -58 -59 -81
-92 -24 -32 -53 -66 -66 -75 -13 -8 -42 -41 -66 -73 -23 -31 -66 -84 -96 -117
-30 -33 -74 -90 -98 -126 -24 -36 -59 -80 -79 -98 -19 -17 -51 -57 -69 -88
-19 -32 -55 -75 -80 -96 -26 -21 -56 -57 -67 -80 -12 -22 -45 -66 -74 -97 -28
-30 -69 -86 -90 -125 -21 -38 -58 -90 -81 -115 -23 -25 -56 -72 -74 -105 -17
-33 -53 -82 -80 -110 -26 -27 -64 -82 -84 -121 -19 -40 -54 -94 -77 -120 -23
-27 -55 -78 -71 -114 -16 -36 -49 -85 -73 -110 -26 -27 -61 -81 -85 -133 -23
-48 -61 -111 -85 -138 -24 -28 -53 -78 -66 -112 -24 -66 -43 -99 -95 -160 -17
-20 -46 -75 -64 -121 -18 -47 -49 -105 -72 -132 -49 -59 -58 -78 -92 -179 -18
-56 -40 -97 -71 -135 -34 -41 -53 -80 -79 -158 -24 -71 -47 -118 -75 -153 -37
-46 -47 -71 -96 -229 -9 -30 -36 -82 -60 -116 -42 -58 -50 -79 -94 -229 -11
-39 -37 -98 -58 -130 -52 -81 -58 -96 -88 -224 -20 -81 -36 -126 -64 -168 -48
-75 -65 -119 -85 -223 -24 -121 -32 -143 -87 -255 -41 -83 -54 -124 -78 -246
-22 -114 -38 -168 -75 -247 -41 -89 -50 -124 -76 -277 -22 -130 -41 -204 -74
-294 -52 -141 -60 -175 -81 -346 -20 -167 -39 -262 -81 -407 -45 -157 -60
-254 -79 -498 -19 -248 -25 -300 -70 -550 -18 -107 -41 -283 -51 -390 -20
-239 -31 -782 -27 -1315 5 -614 26 -934 83 -1240 37 -203 46 -274 65 -520 19
-239 36 -356 69 -462 40 -126 64 -238 86 -403 27 -206 34 -238 85 -382 24 -68
50 -162 58 -208 9 -47 23 -125 32 -175 10 -56 32 -124 57 -180 47 -103 61
-152 88 -302 15 -88 28 -126 68 -203 46 -88 68 -157 101 -321 7 -31 28 -83 47
-115 58 -96 64 -109 93 -229 22 -86 39 -132 75 -192 42 -71 66 -132 96 -249 5
-23 34 -77 63 -121 40 -61 59 -102 81 -181 23 -83 38 -116 77 -169 33 -44 56
-89 70 -137 26 -86 59 -154 89 -181 29 -26 46 -61 76 -153 17 -53 42 -99 78
-147 30 -38 59 -88 66 -110 20 -62 48 -113 100 -181 28 -36 57 -89 69 -127 14
-41 38 -83 68 -118 25 -30 64 -92 85 -139 24 -52 56 -102 83 -130 24 -25 57
-74 73 -110 16 -36 50 -90 76 -120 26 -30 62 -86 80 -125 20 -42 53 -88 81
-115 26 -25 60 -71 76 -103 16 -31 52 -82 79 -112 27 -30 64 -83 81 -117 17
-34 55 -87 84 -117 29 -31 62 -75 74 -98 11 -23 41 -58 67 -79 25 -21 59 -61
75 -89 15 -27 47 -68 70 -90 22 -22 56 -63 74 -91 18 -29 61 -82 94 -119 34
-37 80 -93 102 -125 22 -31 53 -66 69 -78 16 -12 47 -49 69 -81 23 -33 61 -76
85 -96 25 -20 58 -58 75 -84 17 -25 50 -61 74 -78 24 -17 57 -48 73 -69 27
-37 132 -149 210 -224 20 -19 53 -52 73 -74 20 -21 54 -55 75 -75 21 -20 71
-68 110 -107 39 -39 86 -81 103 -93 18 -12 46 -42 63 -65 16 -24 52 -58 79
-75 27 -18 66 -53 87 -78 20 -25 59 -58 85 -75 27 -16 64 -47 82 -69 19 -21
65 -62 103 -90 38 -28 92 -73 120 -99 28 -27 75 -64 105 -83 30 -19 72 -54 94
-76 22 -23 63 -55 91 -71 28 -16 66 -47 84 -69 17 -23 53 -53 78 -68 26 -15
72 -50 102 -78 30 -28 88 -69 129 -90 40 -21 97 -60 125 -86 28 -25 71 -56 96
-69 25 -12 73 -49 107 -81 34 -33 66 -59 73 -59 25 0 136 -63 176 -100 23 -21
74 -55 112 -74 38 -19 85 -51 103 -71 20 -22 74 -55 134 -84 55 -27 122 -66
147 -88 26 -23 78 -53 117 -68 39 -15 97 -48 131 -75 34 -27 92 -61 133 -76
65 -25 93 -41 189 -112 18 -12 64 -32 102 -44 89 -26 117 -40 188 -93 35 -26
89 -54 137 -70 44 -14 95 -37 113 -50 78 -57 137 -85 221 -106 67 -16 106 -33
152 -65 86 -58 106 -67 215 -98 60 -17 117 -42 155 -66 69 -45 109 -60 220
-85 75 -16 107 -30 227 -99 31 -18 89 -36 166 -51 127 -25 181 -44 254 -86 63
-37 118 -55 229 -74 136 -23 163 -31 269 -80 81 -38 120 -49 266 -74 98 -17
210 -43 260 -61 168 -60 202 -69 320 -85 228 -31 366 -57 497 -95 158 -45 220
-55 482 -75 238 -18 317 -28 490 -60 307 -56 529 -73 1075 -84 458 -10 1142
-1 1430 19 169 11 254 22 403 51 142 28 370 56 638 79 279 24 306 28 480 81
128 38 243 61 379 74 119 11 227 35 301 66 124 50 158 60 337 89 151 25 186
35 270 74 118 54 111 52 275 81 115 21 146 32 242 79 90 45 133 60 233 80 73
15 140 34 165 49 23 13 63 36 88 51 25 14 91 37 146 51 129 32 146 38 218 85
38 25 94 48 155 65 133 37 159 48 226 95 38 27 92 51 158 71 57 18 120 45 144
63 83 59 97 66 196 98 56 18 113 43 130 58 54 46 90 67 146 85 71 23 133 56
192 103 26 20 78 48 115 61 37 13 101 48 141 77 40 29 104 65 144 80 44 18 90
46 122 74 31 28 83 60 131 80 48 21 98 52 126 77 25 23 81 59 125 79 43 19
108 60 144 89 36 29 92 66 125 83 33 17 78 49 100 72 22 23 62 53 90 67 27 14
73 47 101 72 28 25 84 64 124 86 40 22 96 62 124 88 28 26 71 59 96 72 25 12
64 44 88 69 24 25 69 63 100 82 31 20 72 54 90 75 53 61 176 88 242 54 32 -17
57 -59 85 -145 13 -39 35 -72 75 -115 31 -33 68 -81 83 -106 14 -25 44 -58 67
-74 22 -15 57 -50 76 -77 20 -27 56 -62 80 -78 24 -17 57 -50 73 -74 17 -24
53 -60 80 -80 28 -19 65 -56 83 -80 18 -25 52 -59 76 -76 23 -17 58 -52 76
-78 19 -26 55 -61 80 -79 25 -18 59 -51 76 -75 16 -24 49 -57 73 -74 23 -17
60 -53 82 -80 22 -28 60 -65 85 -84 25 -18 60 -53 78 -77 18 -24 56 -60 83
-80 27 -19 63 -55 80 -79 16 -24 50 -57 74 -74 24 -17 58 -50 74 -74 17 -24
53 -60 80 -80 28 -19 65 -56 83 -80 18 -25 52 -59 76 -76 23 -17 58 -52 76
-78 19 -26 55 -61 80 -79 25 -18 59 -51 76 -75 17 -24 52 -59 78 -78 25 -19
61 -55 80 -80 19 -25 55 -61 80 -80 25 -19 61 -55 80 -79 18 -25 53 -59 77
-76 24 -17 60 -51 79 -77 19 -25 58 -62 85 -82 27 -20 60 -53 72 -72 12 -19
46 -54 76 -76 30 -23 68 -61 84 -84 16 -24 50 -57 74 -74 25 -17 60 -51 78
-75 19 -24 57 -62 85 -84 27 -22 65 -60 83 -85 18 -25 37 -46 42 -46 5 0 49
-39 97 -87 47 -49 104 -104 126 -123 21 -20 53 -50 69 -69 17 -18 55 -57 85
-87 30 -30 66 -65 80 -79 14 -14 50 -51 81 -81 31 -31 65 -66 76 -77 11 -11
50 -49 86 -84 36 -36 70 -70 77 -76 62 -63 518 -510 547 -537 21 -19 49 -47
63 -63 33 -36 1028 -1022 1551 -1537 227 -223 615 -607 864 -853 249 -247 478
-467 510 -490 32 -23 83 -65 114 -92 34 -31 84 -62 126 -80 39 -16 93 -46 121
-66 65 -48 115 -64 260 -85 230 -34 625 -17 774 33 25 8 68 32 95 53 28 21 84
52 126 69 42 18 85 41 95 53 11 11 51 46 89 76 107 84 143 120 197 201 28 40
66 91 86 113 28 31 47 72 83 177 25 75 58 163 72 197 20 45 29 92 38 180 18
190 -1 336 -61 468 -17 38 -42 110 -57 160 -31 110 -51 152 -93 191 -17 17
-47 58 -67 92 -19 34 -52 77 -74 94 -22 18 -58 56 -79 85 -22 28 -56 65 -77
80 -21 15 -55 49 -76 76 -20 26 -56 61 -78 77 -22 17 -56 50 -75 75 -19 25
-55 61 -80 80 -25 19 -60 55 -79 79 -19 24 -56 61 -84 80 -28 20 -62 54 -76
75 -13 20 -47 54 -75 75 -28 21 -64 57 -81 80 -17 23 -51 58 -77 77 -25 19
-61 55 -79 78 -18 24 -55 61 -82 82 -27 21 -63 58 -80 82 -17 24 -50 56 -74
71 -23 16 -57 50 -76 75 -19 26 -56 64 -83 85 -26 20 -61 56 -77 78 -17 22
-47 53 -69 69 -22 15 -59 51 -83 80 -23 28 -64 66 -91 85 -26 19 -59 53 -74
75 -15 22 -49 56 -75 75 -27 19 -62 54 -79 77 -16 24 -49 57 -73 74 -23 17
-60 54 -82 82 -22 28 -59 65 -82 82 -24 16 -57 49 -74 73 -17 23 -51 58 -77
77 -26 20 -62 56 -82 82 -19 26 -54 60 -77 77 -23 17 -57 50 -75 75 -18 24
-55 59 -82 77 -26 19 -61 53 -78 76 -16 24 -53 61 -82 83 -30 21 -64 55 -76
75 -12 20 -47 54 -76 76 -30 22 -66 58 -80 79 -15 22 -49 56 -75 75 -27 19
-62 54 -79 77 -16 24 -49 57 -73 74 -23 17 -60 53 -82 80 -22 28 -60 65 -85
84 -25 18 -60 53 -78 77 -18 24 -55 60 -81 79 -27 18 -60 52 -75 74 -14 21
-50 58 -80 80 -30 22 -66 59 -80 81 -15 22 -49 56 -77 75 -27 20 -63 56 -80
80 -16 24 -49 57 -73 74 -24 16 -60 51 -79 77 -20 27 -56 63 -82 82 -26 18
-60 52 -77 75 -16 22 -50 57 -76 76 -25 19 -61 55 -80 80 -19 25 -55 61 -80
80 -25 19 -61 55 -80 79 -18 25 -53 58 -77 75 -23 17 -60 54 -82 81 -22 28
-58 63 -80 78 -22 15 -55 48 -72 73 -18 24 -57 62 -86 84 -29 21 -62 54 -74
73 -12 19 -46 53 -76 76 -31 23 -67 60 -81 81 -15 22 -49 56 -76 75 -27 20
-63 56 -80 80 -18 25 -48 56 -69 69 -20 14 -52 44 -70 67 -19 23 -47 54 -64
68 -33 29 -161 153 -307 298 -35 34 -76 76 -93 94 -16 18 -50 51 -74 73 -25
23 -61 59 -80 80 -20 22 -54 56 -76 75 -21 20 -60 59 -87 86 -26 28 -53 56
-61 64 -12 11 -127 125 -154 151 -4 5 -127 126 -273 269 -146 142 -281 276
-300 297 -19 21 -50 52 -69 69 -19 16 -69 62 -110 101 -42 39 -104 88 -139
109 -35 20 -83 54 -107 75 -24 21 -75 50 -114 65 -79 30 -121 70 -121 115 0
47 76 185 121 221 22 17 54 56 71 86 17 30 50 70 74 90 24 20 57 62 73 92 16
31 53 81 80 111 28 30 66 85 86 121 19 36 55 86 80 110 25 24 58 69 73 99 14
30 47 78 73 105 26 28 63 84 84 125 20 41 59 100 86 131 26 31 59 82 73 113
14 31 46 80 71 109 27 30 62 88 85 140 24 55 56 107 83 135 26 29 54 74 71
116 15 38 42 89 59 113 18 24 42 58 54 74 12 17 31 59 43 95 14 40 43 92 76
136 39 51 61 95 81 155 19 57 42 103 75 146 34 45 56 88 79 157 19 59 45 114
68 145 52 69 67 100 92 192 25 90 37 117 90 193 28 40 46 83 65 155 28 108 39
133 91 211 24 36 42 84 62 166 16 64 40 136 53 160 14 24 37 64 51 89 17 29
36 91 52 170 21 100 36 146 80 234 46 94 57 128 75 230 26 149 32 167 87 287
38 84 48 119 73 271 27 162 38 205 105 380 17 48 33 127 50 264 30 230 35 253
81 397 39 122 58 234 74 446 18 230 48 479 74 617 32 165 43 254 57 438 18
252 27 967 18 1426 -8 468 -26 729 -65 952 -46 268 -63 402 -79 607 -16 217
-35 350 -61 440 -49 172 -66 249 -84 380 -31 225 -49 317 -71 373 -52 132 -72
204 -100 367 -26 151 -36 188 -74 270 -44 95 -65 165 -85 293 -13 85 -33 145
-69 205 -40 69 -58 123 -86 255 -15 75 -34 135 -51 165 -69 120 -83 152 -99
227 -25 111 -40 151 -85 220 -26 40 -50 99 -73 177 -26 89 -45 133 -81 185
-33 50 -55 96 -74 164 -26 90 -51 139 -108 218 -13 19 -33 62 -43 96 -30 96
-45 128 -94 191 -27 36 -53 86 -67 129 -29 88 -45 121 -83 165 -16 19 -41 59
-54 90 -52 119 -64 141 -107 197 -25 32 -58 90 -74 129 -16 40 -47 94 -70 120
-23 27 -59 89 -82 137 -24 52 -59 108 -85 136 -24 26 -57 76 -73 112 -16 35
-50 89 -77 119 -26 30 -62 87 -80 125 -20 43 -51 87 -80 115 -26 25 -58 68
-72 95 -14 28 -47 73 -72 101 -26 28 -65 85 -86 125 -21 41 -62 99 -90 129
-28 30 -64 76 -79 102 -14 26 -42 60 -62 75 -19 16 -50 53 -69 83 -18 30 -52
73 -75 95 -23 22 -57 64 -76 92 -18 29 -58 79 -88 112 -30 32 -77 90 -104 128
-28 37 -64 78 -80 90 -17 12 -46 49 -66 81 -20 33 -53 71 -75 86 -21 15 -58
54 -80 86 -23 32 -57 68 -76 80 -20 12 -47 38 -62 58 -25 35 -136 152 -219
232 -20 19 -53 52 -73 74 -20 21 -54 55 -75 75 -21 20 -71 68 -110 107 -39 39
-86 81 -103 93 -18 12 -46 42 -63 65 -16 24 -52 58 -79 75 -27 18 -66 52 -86
77 -20 24 -63 62 -96 85 -32 22 -69 53 -81 69 -12 16 -47 47 -78 69 -32 22
-88 68 -125 102 -37 33 -90 76 -119 94 -28 18 -69 52 -91 74 -22 23 -63 55
-90 70 -28 16 -68 50 -89 75 -21 26 -56 56 -79 67 -23 12 -67 45 -97 73 -30
29 -87 69 -127 90 -39 21 -95 60 -125 87 -29 27 -79 63 -111 80 -31 16 -69 46
-85 65 -16 21 -57 51 -102 74 -41 21 -102 60 -135 87 -33 26 -88 61 -122 76
-34 15 -86 50 -115 76 -34 31 -81 60 -129 80 -43 18 -100 52 -132 80 -34 28
-87 59 -127 75 -38 15 -98 49 -132 76 -38 29 -97 62 -147 81 -46 17 -97 44
-115 58 -56 49 -90 68 -164 95 -95 34 -109 41 -158 86 -33 30 -65 46 -155 74
-87 27 -126 45 -164 76 -38 30 -77 49 -160 75 -80 25 -129 48 -175 80 -36 25
-87 52 -115 60 -27 8 -81 24 -120 35 -38 11 -105 40 -148 66 -60 36 -106 53
-192 75 -120 29 -133 35 -229 93 -36 22 -87 41 -135 51 -132 29 -183 46 -282
95 -72 35 -120 52 -190 64 -161 28 -231 48 -318 88 -99 45 -156 60 -306 83
-70 10 -168 36 -271 70 -115 39 -193 59 -280 70 -226 31 -353 55 -475 90 -163
47 -246 61 -489 80 -243 19 -321 28 -497 60 -253 46 -492 70 -803 79 -348 11
-872 13 -1225 6z m1231 -2460 c363 -21 501 -35 624 -65 105 -26 296 -54 505
-75 257 -25 347 -42 494 -92 85 -30 157 -46 285 -64 184 -26 278 -50 366 -93
68 -34 112 -46 265 -71 105 -17 134 -27 230 -74 87 -44 133 -60 219 -77 133
-26 170 -38 238 -81 66 -43 91 -52 203 -79 95 -23 137 -41 219 -94 29 -19 93
-45 145 -60 107 -30 137 -44 200 -91 37 -29 85 -47 233 -90 9 -3 44 -27 78
-54 46 -36 85 -57 156 -80 71 -24 107 -43 146 -75 33 -29 82 -56 142 -79 64
-25 110 -51 151 -86 32 -27 75 -55 94 -61 60 -19 125 -55 172 -95 24 -20 80
-54 124 -74 46 -22 95 -53 115 -75 19 -20 70 -54 112 -76 42 -21 99 -59 127
-83 27 -24 82 -61 121 -81 40 -22 83 -54 100 -74 15 -21 52 -50 82 -66 29 -15
74 -47 99 -70 25 -24 85 -68 132 -98 47 -31 98 -70 113 -87 15 -17 56 -48 90
-70 35 -22 78 -58 96 -81 18 -23 56 -56 84 -74 28 -18 70 -56 94 -84 23 -28
52 -54 64 -57 11 -4 53 -39 93 -78 40 -39 114 -109 164 -156 115 -107 444
-437 552 -553 45 -49 110 -116 143 -150 34 -34 71 -78 82 -97 11 -19 42 -52
67 -73 25 -22 62 -62 81 -91 19 -28 54 -69 79 -89 25 -21 54 -56 66 -79 11
-22 46 -68 78 -102 31 -33 71 -86 89 -117 18 -31 57 -84 87 -118 30 -34 66
-84 80 -111 14 -27 43 -63 64 -81 23 -18 55 -60 76 -101 20 -38 57 -92 82
-121 25 -28 61 -84 79 -123 19 -42 52 -92 77 -117 24 -25 52 -62 61 -83 39
-85 60 -121 96 -164 40 -48 70 -103 89 -163 7 -20 34 -63 61 -94 33 -38 60
-86 85 -151 25 -63 52 -110 80 -142 33 -37 50 -71 74 -143 18 -53 47 -115 64
-138 58 -77 67 -93 97 -189 16 -52 38 -107 47 -121 10 -14 32 -47 49 -72 19
-28 43 -88 59 -148 19 -67 41 -120 68 -162 52 -80 61 -103 92 -228 17 -71 38
-124 65 -169 54 -90 65 -119 89 -245 17 -85 33 -133 71 -210 36 -71 56 -127
69 -195 11 -52 27 -133 36 -180 9 -46 28 -106 41 -132 50 -98 66 -158 90 -321
29 -204 35 -232 74 -336 42 -116 66 -244 90 -491 23 -244 40 -359 75 -510 57
-248 79 -697 72 -1480 -6 -699 -21 -942 -72 -1175 -37 -168 -52 -271 -75 -505
-26 -270 -40 -348 -91 -496 -31 -89 -47 -162 -65 -289 -28 -196 -41 -246 -94
-364 -29 -66 -45 -121 -64 -233 -27 -152 -42 -202 -86 -278 -38 -66 -48 -94
-70 -205 -28 -136 -35 -158 -86 -246 -30 -52 -52 -107 -69 -179 -31 -125 -42
-152 -89 -220 -20 -29 -45 -85 -57 -124 -35 -122 -51 -159 -96 -225 -27 -40
-53 -95 -69 -150 -32 -105 -47 -134 -94 -188 -27 -31 -45 -69 -69 -143 -25
-79 -42 -111 -74 -148 -23 -26 -51 -67 -61 -92 -53 -126 -67 -152 -109 -203
-25 -30 -50 -72 -57 -94 -20 -61 -45 -105 -90 -158 -23 -28 -58 -84 -77 -125
-19 -42 -54 -95 -78 -120 -24 -25 -60 -79 -79 -121 -20 -42 -59 -102 -86 -134
-28 -31 -64 -82 -79 -113 -16 -32 -48 -75 -71 -97 -23 -22 -53 -62 -67 -89
-14 -28 -49 -75 -77 -105 -29 -31 -70 -84 -90 -119 -21 -35 -62 -89 -90 -120
-29 -31 -65 -78 -80 -105 -16 -26 -48 -63 -72 -83 -24 -20 -54 -55 -68 -79
-14 -24 -51 -65 -82 -91 -30 -26 -62 -61 -71 -78 -9 -17 -46 -61 -82 -99 -36
-37 -101 -104 -144 -150 -105 -112 -443 -449 -545 -545 -45 -42 -113 -107
-150 -143 -37 -36 -83 -75 -102 -87 -19 -11 -52 -42 -74 -67 -21 -26 -62 -62
-91 -80 -29 -19 -67 -52 -85 -75 -17 -22 -53 -52 -78 -67 -26 -15 -73 -50
-104 -79 -31 -28 -85 -69 -120 -89 -35 -21 -85 -59 -113 -85 -27 -27 -72 -59
-100 -73 -27 -14 -70 -46 -95 -72 -25 -26 -70 -60 -102 -76 -31 -15 -82 -51
-113 -79 -32 -27 -92 -66 -134 -86 -42 -19 -96 -55 -121 -79 -25 -24 -78 -59
-120 -78 -41 -19 -100 -56 -130 -81 -31 -26 -87 -59 -132 -77 -43 -17 -97 -48
-120 -69 -47 -41 -96 -67 -176 -96 -29 -10 -73 -36 -99 -57 -59 -48 -98 -68
-191 -97 -48 -15 -87 -35 -115 -60 -53 -47 -84 -62 -177 -90 -84 -25 -125 -44
-155 -70 -33 -30 -115 -67 -203 -90 -52 -14 -106 -37 -145 -63 -80 -52 -103
-61 -228 -92 -71 -17 -125 -38 -171 -66 -82 -48 -120 -62 -229 -84 -113 -22
-173 -42 -234 -78 -72 -43 -112 -55 -274 -82 -111 -20 -164 -34 -231 -64 -119
-54 -169 -67 -365 -95 -106 -15 -198 -34 -245 -51 -133 -48 -247 -74 -397 -90
-82 -9 -211 -23 -288 -31 -77 -8 -216 -30 -310 -49 -217 -44 -289 -52 -597
-70 -298 -17 -1213 -20 -1484 -5 -363 21 -501 35 -624 65 -107 27 -297 55
-505 75 -270 26 -365 44 -500 92 -85 30 -149 45 -280 64 -205 29 -236 36 -346
85 -86 39 -138 53 -328 88 -80 15 -127 31 -205 70 -74 37 -128 56 -201 71
-143 28 -163 35 -236 79 -67 41 -106 55 -246 92 -55 14 -106 36 -158 69 -54
34 -104 56 -177 76 -78 21 -118 38 -172 76 -47 32 -100 57 -156 74 -102 32
-129 45 -192 94 -31 25 -80 49 -141 69 -70 24 -107 43 -145 75 -33 28 -84 57
-145 81 -64 25 -112 52 -150 85 -31 27 -74 54 -94 61 -61 19 -115 49 -164 90
-26 22 -83 57 -128 79 -45 22 -95 56 -113 76 -20 22 -65 51 -113 74 -46 21
-106 59 -140 90 -33 29 -82 63 -110 75 -27 13 -70 44 -95 70 -25 26 -66 58
-92 71 -26 13 -75 49 -109 79 -34 30 -86 69 -116 86 -30 17 -80 55 -111 83
-31 29 -82 69 -113 88 -30 19 -70 54 -88 77 -18 23 -53 53 -77 67 -24 14 -62
48 -84 74 -23 27 -58 59 -78 71 -20 12 -65 49 -99 83 -34 33 -102 98 -150 144
-126 118 -460 452 -556 555 -45 49 -110 116 -143 150 -34 34 -71 78 -83 98
-12 20 -42 54 -67 74 -25 21 -59 60 -76 86 -16 27 -48 63 -70 80 -22 18 -60
62 -83 98 -23 36 -57 80 -75 96 -18 17 -56 67 -86 112 -29 46 -71 102 -92 125
-22 24 -51 66 -65 93 -14 28 -49 73 -77 100 -28 28 -65 76 -81 107 -16 32 -50
81 -75 110 -26 28 -62 86 -81 128 -22 47 -50 91 -78 118 -27 25 -58 71 -78
115 -19 39 -53 94 -75 122 -23 27 -58 87 -77 133 -22 52 -52 103 -79 133 -31
35 -56 78 -81 142 -22 59 -52 112 -80 147 -33 40 -53 80 -75 146 -23 68 -44
108 -80 153 -27 33 -51 68 -54 78 -44 152 -61 196 -90 234 -47 63 -61 93 -91
200 -15 52 -41 116 -60 145 -54 84 -74 129 -95 221 -25 108 -35 133 -78 201
-43 68 -55 105 -81 238 -17 86 -33 132 -77 219 -47 96 -57 125 -74 230 -25
153 -37 197 -70 265 -43 85 -69 181 -86 314 -21 166 -39 248 -75 347 -43 119
-65 232 -89 477 -22 218 -43 362 -79 532 -48 224 -62 468 -68 1165 -7 790 13
1220 68 1475 35 164 58 315 74 493 24 245 48 386 90 507 45 133 50 154 79 359
17 119 33 188 51 233 15 35 38 88 50 118 13 30 31 96 40 145 37 200 47 237 95
330 27 52 54 121 60 152 29 150 52 219 95 293 33 56 53 107 71 181 26 106 47
155 95 225 15 22 34 62 43 90 8 27 24 81 36 119 13 40 40 96 65 131 30 41 53
91 74 160 30 96 42 119 103 195 14 19 41 76 59 128 22 65 45 109 76 147 25 31
56 86 74 133 30 78 38 93 106 181 17 23 43 71 57 108 15 38 46 91 72 122 25
30 62 88 81 129 19 41 54 95 78 120 23 25 61 83 84 128 24 45 64 106 89 135
26 30 58 75 72 102 13 26 45 69 71 95 26 26 59 71 74 101 15 29 49 76 75 104
26 28 65 78 86 111 21 33 59 83 84 110 26 28 59 72 75 98 15 26 49 66 76 89
27 23 62 63 78 89 16 25 50 64 76 85 25 22 57 58 70 81 14 23 46 61 73 85 26
23 63 64 82 89 19 25 52 59 73 75 22 16 48 43 60 59 25 37 369 380 417 417 19
15 48 44 64 65 16 21 50 54 75 73 25 19 65 55 88 81 24 26 62 58 85 72 24 14
63 48 86 76 24 28 62 62 85 76 23 13 61 47 85 75 24 28 61 59 83 71 22 11 66
44 98 73 32 30 85 70 117 91 33 21 82 59 110 85 28 26 75 60 105 75 30 15 79
51 109 79 30 29 75 62 101 75 25 12 67 43 94 67 27 25 87 64 133 86 49 24 104
60 129 85 24 23 76 58 116 77 40 19 97 55 127 80 30 26 79 55 108 66 80 30
113 49 157 89 25 23 76 51 134 74 52 22 114 55 140 76 55 46 84 61 177 90 46
15 89 37 120 62 62 52 67 55 189 93 61 20 117 45 136 60 46 39 96 62 195 91
95 28 109 34 199 89 58 35 80 44 227 81 38 9 97 35 133 57 82 49 116 61 251
88 84 17 131 33 203 71 93 48 119 55 344 99 65 12 132 32 166 50 92 46 175 68
341 90 169 23 210 33 342 79 115 40 210 57 468 82 215 20 324 37 540 83 109
22 268 38 565 55 198 12 1249 12 1451 1z"/>
</g>
</svg>
