<svg width="39" height="39" viewBox="0 0 39 39" fill="none" xmlns="http://www.w3.org/2000/svg">
<path d="M27.1937 32.3453C25.6306 33.8605 23.9241 33.6212 22.2813 32.9035C20.5428 32.1698 18.9478 32.138 17.1137 32.9035C14.817 33.8924 13.6048 33.6053 12.2332 32.3453C4.44987 24.3228 5.59823 12.1055 14.4342 11.659C16.5873 11.7706 18.0866 12.8392 19.3466 12.9349C21.2286 12.5521 23.0309 11.4516 25.0405 11.5952C27.4489 11.7866 29.2671 12.7435 30.4633 14.4661C25.4871 17.4486 26.6673 24.0038 31.2289 25.838C30.3197 28.2304 29.1395 30.6068 27.1777 32.3612L27.1937 32.3453ZM19.1871 11.5633C18.9478 8.00656 21.8347 5.07188 25.1522 4.78479C25.6147 8.89973 21.42 11.962 19.1871 11.5633Z" fill="black"/>
</svg>
